<svg width="28" height="28" viewBox="0 0 28 28" fill="none" xmlns="http://www.w3.org/2000/svg">
<path d="M14.0001 1.12C6.89346 1.12 1.12012 6.89333 1.12012 14C1.12012 21.1067 6.89346 26.88 14.0001 26.88C18.2619 26.88 22.0454 24.805 24.3886 21.6114C24.4347 21.5523 24.4685 21.4846 24.488 21.4123C24.5075 21.3399 24.5123 21.2643 24.502 21.1901C24.4918 21.1159 24.4668 21.0444 24.4284 20.98C24.3901 20.9156 24.3392 20.8596 24.2788 20.8152C24.2184 20.7709 24.1497 20.7391 24.0768 20.7217C24.0039 20.7044 23.9282 20.7019 23.8543 20.7143C23.7804 20.7267 23.7097 20.7539 23.6465 20.7941C23.5833 20.8344 23.5288 20.8869 23.4862 20.9486C21.346 23.8657 17.8987 25.76 14.0001 25.76C7.49878 25.76 2.24012 20.5013 2.24012 14C2.24012 7.49866 7.49878 2.24 14.0001 2.24C17.8987 2.24 21.346 4.13433 23.4862 7.0514C23.5288 7.1131 23.5833 7.16562 23.6465 7.20586C23.7097 7.24611 23.7804 7.27325 23.8543 7.28569C23.9282 7.29813 24.0039 7.2956 24.0768 7.27827C24.1497 7.26093 24.2184 7.22914 24.2788 7.18477C24.3392 7.1404 24.3901 7.08436 24.4284 7.01997C24.4668 6.95557 24.4918 6.88414 24.502 6.80989C24.5123 6.73565 24.5075 6.6601 24.488 6.58774C24.4685 6.51537 24.4347 6.44765 24.3886 6.38859C22.0454 3.19494 18.2619 1.12 14.0001 1.12ZM21.8346 8.95453C21.7232 8.95456 21.6144 8.98781 21.522 9.05003C21.4296 9.11225 21.3578 9.20062 21.3159 9.30384C21.274 9.40705 21.2638 9.52042 21.2866 9.62946C21.3095 9.73849 21.3643 9.83823 21.4442 9.91593L24.9682 13.44H12.8801C12.8059 13.4389 12.7322 13.4527 12.6634 13.4803C12.5945 13.508 12.5318 13.5491 12.479 13.6012C12.4261 13.6533 12.3842 13.7154 12.3555 13.7838C12.3269 13.8523 12.3121 13.9258 12.3121 14C12.3121 14.0742 12.3269 14.1477 12.3555 14.2161C12.3842 14.2846 12.4261 14.3467 12.479 14.3988C12.5318 14.4509 12.5945 14.492 12.6634 14.5197C12.7322 14.5473 12.8059 14.561 12.8801 14.56H24.9682L21.4442 18.0841C21.3904 18.1357 21.3475 18.1975 21.318 18.2659C21.2884 18.3342 21.2728 18.4079 21.272 18.4824C21.2713 18.5569 21.2854 18.6308 21.3135 18.6997C21.3417 18.7687 21.3834 18.8314 21.436 18.8841C21.4887 18.9368 21.5514 18.9784 21.6204 19.0066C21.6893 19.0347 21.7633 19.0488 21.8378 19.0481C21.9123 19.0473 21.9859 19.0317 22.0543 19.0021C22.1226 18.9726 22.1845 18.9297 22.2361 18.8759L26.6668 14.4452C26.7354 14.3928 26.791 14.3253 26.8293 14.248C26.8675 14.1706 26.8873 14.0855 26.8872 13.9992C26.8871 13.9129 26.8671 13.8278 26.8286 13.7505C26.7902 13.6733 26.7345 13.6059 26.6657 13.5537L22.2361 9.12406C22.1839 9.07041 22.1215 9.02777 22.0525 8.99865C21.9836 8.96954 21.9095 8.95453 21.8346 8.95453Z" fill="black"/>
</svg>
